<svg xmlns="http://www.w3.org/2000/svg" width="140.65" height="47.01" viewBox="0 0 140.65 47.01">
  <g id="apple-store" transform="translate(-1.026 -1.029)">
    <g id="Group_29" data-name="Group 29" transform="translate(1.026 1.029)">
      <g id="Group_27" data-name="Group 27">
        <path id="Path_34" data-name="Path 34" d="M9.9,47.885c-.363,0-.718,0-1.079-.014a14.7,14.7,0,0,1-2.233-.2A6.876,6.876,0,0,1,4.618,47a6.46,6.46,0,0,1-1.666-1.249,6.533,6.533,0,0,1-1.218-1.717,7.183,7.183,0,0,1-.644-2.039,15.707,15.707,0,0,1-.2-2.3C.883,39.433.873,38.57.873,38.57V10.177s.01-.849.017-1.1a15.653,15.653,0,0,1,.2-2.3,7.225,7.225,0,0,1,.648-2.043A6.715,6.715,0,0,1,4.62,1.762a6.8,6.8,0,0,1,1.972-.668,14.582,14.582,0,0,1,2.233-.2L9.906.875H132.493l1.089.016a14.35,14.35,0,0,1,2.216.2,6.939,6.939,0,0,1,1.993.673,6.778,6.778,0,0,1,2.881,2.974,7.235,7.235,0,0,1,.638,2.026,16.445,16.445,0,0,1,.2,2.319c0,.348,0,.721,0,1.094.009.461.009.9.009,1.341V37.239c0,.446,0,.882-.009,1.322V39.7a16.114,16.114,0,0,1-.2,2.278,7.2,7.2,0,0,1-.644,2.052,6.729,6.729,0,0,1-1.212,1.7,6.47,6.47,0,0,1-1.669,1.255,6.849,6.849,0,0,1-1.99.675,14.532,14.532,0,0,1-2.233.2c-.349.008-.71.014-1.071.014H131.2Z" transform="translate(-0.873 -0.875)"/>
      </g>
      <g id="_Group_" data-name="&lt;Group&gt;" transform="translate(10.695 11.273)">
        <g id="_Group_2" data-name="&lt;Group&gt;">
          <g id="_Group_3" data-name="&lt;Group&gt;">
            <path id="_Path_" data-name="&lt;Path&gt;" d="M27.365,21.411a5.817,5.817,0,0,1,2.77-4.881,5.954,5.954,0,0,0-4.691-2.536c-1.974-.207-3.887,1.181-4.893,1.181-1.025,0-2.574-1.161-4.242-1.126a6.248,6.248,0,0,0-5.258,3.206c-2.273,3.936-.578,9.72,1.6,12.9,1.09,1.558,2.363,3.3,4.029,3.236,1.63-.068,2.239-1.04,4.207-1.04,1.95,0,2.521,1.04,4.221,1,1.75-.028,2.852-1.565,3.9-3.137A12.885,12.885,0,0,0,30.8,26.582a5.621,5.621,0,0,1-3.435-5.171Z" transform="translate(-9.972 -7.802)" fill="#fff"/>
            <path id="_Path_2" data-name="&lt;Path&gt;" d="M22.607,12.823a5.727,5.727,0,0,0,1.31-4.1,5.827,5.827,0,0,0-3.77,1.951A5.45,5.45,0,0,0,18.8,14.622a4.818,4.818,0,0,0,3.807-1.8Z" transform="translate(-8.424 -8.723)" fill="#fff"/>
          </g>
        </g>
        <g id="Group_28" data-name="Group 28" transform="translate(28.746 10.755)">
          <path id="Path_35" data-name="Path 35" d="M43.684,28.729H38.12l-1.336,3.945H34.427l5.27-14.6h2.448l5.27,14.6h-2.4ZM38.7,26.909h4.41l-2.174-6.4h-.061Z" transform="translate(-34.427 -17.837)" fill="#fff"/>
          <path id="Path_36" data-name="Path 36" d="M56.656,26.781c0,3.307-1.77,5.432-4.441,5.432a3.608,3.608,0,0,1-3.348-1.862h-.051v5.271H46.631V21.459h2.114v1.77h.04a3.775,3.775,0,0,1,3.389-1.881C54.876,21.348,56.656,23.483,56.656,26.781Zm-2.245,0c0-2.155-1.113-3.571-2.812-3.571-1.669,0-2.792,1.446-2.792,3.571,0,2.144,1.123,3.58,2.792,3.58C53.3,30.361,54.411,28.955,54.411,26.781Z" transform="translate(-32.286 -17.263)" fill="#fff"/>
          <path id="Path_37" data-name="Path 37" d="M66.621,26.781c0,3.307-1.77,5.432-4.441,5.432a3.608,3.608,0,0,1-3.348-1.862h-.051v5.271H56.6V21.459h2.114v1.77h.04a3.775,3.775,0,0,1,3.389-1.881C64.84,21.348,66.621,23.483,66.621,26.781Zm-2.245,0c0-2.155-1.113-3.571-2.812-3.571-1.669,0-2.792,1.446-2.792,3.571,0,2.144,1.123,3.58,2.792,3.58,1.7,0,2.812-1.406,2.812-3.58Z" transform="translate(-30.538 -17.263)" fill="#fff"/>
          <path id="Path_38" data-name="Path 38" d="M72.044,28.644c.162,1.447,1.568,2.4,3.49,2.4,1.841,0,3.166-.95,3.166-2.256,0-1.133-.8-1.811-2.691-2.276l-1.892-.456c-2.68-.647-3.925-1.9-3.925-3.935,0-2.518,2.195-4.248,5.311-4.248,3.084,0,5.2,1.73,5.27,4.248h-2.2c-.132-1.457-1.336-2.336-3.1-2.336s-2.964.89-2.964,2.184c0,1.032.769,1.639,2.65,2.1l1.608.4c3,.708,4.239,1.911,4.239,4.046,0,2.731-2.175,4.441-5.635,4.441-3.237,0-5.423-1.67-5.564-4.31Z" transform="translate(-28.22 -17.873)" fill="#fff"/>
          <path id="Path_39" data-name="Path 39" d="M83.9,19.3v2.518h2.024v1.73H83.9v5.867c0,.911.4,1.336,1.295,1.336a6.825,6.825,0,0,0,.719-.051v1.72a6,6,0,0,1-1.213.1c-2.155,0-3-.809-3-2.873v-6.1H80.163v-1.73H81.71V19.3Z" transform="translate(-26.403 -17.622)" fill="#fff"/>
          <path id="Path_40" data-name="Path 40" d="M86.065,26.784c0-3.348,1.972-5.452,5.047-5.452s5.048,2.1,5.048,5.452-1.953,5.452-5.048,5.452S86.065,30.141,86.065,26.784Zm7.87,0c0-2.3-1.053-3.653-2.823-3.653S88.29,24.5,88.29,26.784c0,2.306,1.051,3.651,2.822,3.651S93.935,29.09,93.935,26.784Z" transform="translate(-25.368 -17.266)" fill="#fff"/>
          <path id="Path_41" data-name="Path 41" d="M96.186,21.459h2.083V23.27h.051a2.538,2.538,0,0,1,2.56-1.923,3.369,3.369,0,0,1,.748.082v2.043a3.054,3.054,0,0,0-.982-.132,2.2,2.2,0,0,0-2.276,2.448V32.1H96.186Z" transform="translate(-23.592 -17.263)" fill="#fff"/>
          <path id="Path_42" data-name="Path 42" d="M110.817,28.978c-.294,1.932-2.175,3.258-4.582,3.258-3.1,0-5.017-2.074-5.017-5.4s1.932-5.5,4.926-5.5c2.944,0,4.8,2.023,4.8,5.249v.748h-7.516v.132a2.772,2.772,0,0,0,2.863,3.014,2.408,2.408,0,0,0,2.458-1.5ZM103.433,25.8h5.32a2.559,2.559,0,0,0-2.61-2.7,2.694,2.694,0,0,0-2.71,2.7Z" transform="translate(-22.709 -17.266)" fill="#fff"/>
        </g>
      </g>
    </g>
    <g id="_Group_4" data-name="&lt;Group&gt;" transform="translate(41.929 10.403)">
      <g id="Group_30" data-name="Group 30">
        <path id="Path_43" data-name="Path 43" d="M38.2,8.732a3.1,3.1,0,0,1,3.3,3.485c0,2.241-1.211,3.529-3.3,3.529H35.671V8.732Zm-1.44,6.022h1.322A2.2,2.2,0,0,0,40.4,12.231a2.211,2.211,0,0,0-2.313-2.508H36.76Z" transform="translate(-35.671 -8.387)" fill="#fff"/>
        <path id="Path_44" data-name="Path 44" d="M41.682,12.854a2.507,2.507,0,1,1,4.992,0,2.508,2.508,0,1,1-4.992,0Zm3.918,0c0-1.147-.515-1.818-1.42-1.818s-1.419.671-1.419,1.818.511,1.822,1.419,1.822S45.6,14.006,45.6,12.854Z" transform="translate(-34.618 -8.144)" fill="#fff"/>
        <path id="Path_45" data-name="Path 45" d="M52.451,15.488H51.368l-1.094-3.9h-.083l-1.089,3.9H48.028l-1.459-5.293h1.06l.948,4.039h.078l1.088-4.039h1l1.088,4.039h.083l.944-4.039H53.9Z" transform="translate(-33.759 -8.129)" fill="#fff"/>
        <path id="Path_46" data-name="Path 46" d="M53.854,10.211H54.86v.841h.078a1.584,1.584,0,0,1,1.579-.943,1.722,1.722,0,0,1,1.832,1.969V15.5H57.3V12.34c0-.851-.37-1.274-1.142-1.274A1.214,1.214,0,0,0,54.9,12.407v3.1H53.854Z" transform="translate(-32.481 -8.145)" fill="#fff"/>
        <path id="Path_47" data-name="Path 47" d="M59.094,8.437h1.045V15.8H59.094Z" transform="translate(-31.562 -8.437)" fill="#fff"/>
        <path id="Path_48" data-name="Path 48" d="M61.22,12.854a2.508,2.508,0,1,1,4.993,0,2.508,2.508,0,1,1-4.993,0Zm3.918,0c0-1.147-.515-1.818-1.42-1.818s-1.419.671-1.419,1.818.511,1.822,1.419,1.822S65.138,14.006,65.138,12.854Z" transform="translate(-31.191 -8.144)" fill="#fff"/>
        <path id="Path_49" data-name="Path 49" d="M66.4,14.006c0-.953.709-1.5,1.969-1.58l1.434-.083v-.457c0-.559-.37-.875-1.084-.875-.583,0-.987.214-1.1.588H66.605c.107-.909.962-1.492,2.163-1.492,1.327,0,2.075.661,2.075,1.779V15.5H69.838v-.744h-.083a1.781,1.781,0,0,1-1.59.831A1.6,1.6,0,0,1,66.4,14.006Zm3.4-.452v-.443l-1.293.083c-.729.049-1.06.3-1.06.763s.413.754.981.754A1.248,1.248,0,0,0,69.8,13.554Z" transform="translate(-30.28 -8.144)" fill="#fff"/>
        <path id="Path_50" data-name="Path 50" d="M71.348,13.147c0-1.672.86-2.732,2.2-2.732a1.744,1.744,0,0,1,1.623.929h.078V8.437h1.045V15.8h-1v-.84h-.083a1.837,1.837,0,0,1-1.662.923C72.2,15.883,71.348,14.824,71.348,13.147Zm1.079,0c0,1.123.529,1.8,1.414,1.8s1.425-.685,1.425-1.794-.55-1.8-1.425-1.8S72.427,12.033,72.427,13.147Z" transform="translate(-29.412 -8.437)" fill="#fff"/>
        <path id="Path_51" data-name="Path 51" d="M79.232,12.854a2.507,2.507,0,1,1,4.992,0,2.508,2.508,0,1,1-4.992,0Zm3.918,0c0-1.147-.515-1.818-1.42-1.818s-1.419.671-1.419,1.818.511,1.822,1.419,1.822S83.15,14.006,83.15,12.854Z" transform="translate(-28.031 -8.144)" fill="#fff"/>
        <path id="Path_52" data-name="Path 52" d="M84.669,10.211h1.006v.841h.078a1.584,1.584,0,0,1,1.579-.943,1.722,1.722,0,0,1,1.832,1.969V15.5H88.12V12.34c0-.851-.37-1.274-1.142-1.274a1.214,1.214,0,0,0-1.264,1.341v3.1H84.669Z" transform="translate(-27.074 -8.145)" fill="#fff"/>
        <path id="Path_53" data-name="Path 53" d="M93.8,9.074v1.342h1.147v.88H93.8v2.722c0,.554.228.8.748.8a3.486,3.486,0,0,0,.4-.024v.87a3.427,3.427,0,0,1-.568.053c-1.162,0-1.624-.409-1.624-1.429V11.3h-.84v-.88h.84V9.074Z" transform="translate(-25.804 -8.325)" fill="#fff"/>
        <path id="Path_54" data-name="Path 54" d="M95.7,8.437h1.04v2.917h.083a1.629,1.629,0,0,1,1.614-.948,1.744,1.744,0,0,1,1.823,1.973V15.8H99.214V12.64c0-.845-.394-1.274-1.132-1.274A1.237,1.237,0,0,0,96.749,12.7v3.1H95.7Z" transform="translate(-25.138 -8.437)" fill="#fff"/>
        <path id="Path_55" data-name="Path 55" d="M105.472,14.074a2.149,2.149,0,0,1-2.294,1.531,2.4,2.4,0,0,1-2.445-2.732,2.441,2.441,0,0,1,2.44-2.765c1.473,0,2.361,1.006,2.361,2.668v.364H101.8v.06a1.4,1.4,0,0,0,1.41,1.516,1.269,1.269,0,0,0,1.259-.642ZM101.8,12.368h2.673a1.277,1.277,0,0,0-1.3-1.371,1.354,1.354,0,0,0-1.371,1.371Z" transform="translate(-24.26 -8.144)" fill="#fff"/>
      </g>
    </g>
  </g>
</svg>
