<svg xmlns="http://www.w3.org/2000/svg" xmlns:xlink="http://www.w3.org/1999/xlink" width="140.65" height="47.01" viewBox="0 0 140.65 47.01">
  <defs>
    <linearGradient id="linear-gradient" x1="0.915" y1="4.039" x2="-0.383" y2="3.37" gradientUnits="objectBoundingBox">
      <stop offset="0" stop-color="#00a0ff"/>
      <stop offset="0.007" stop-color="#00a1ff"/>
      <stop offset="0.26" stop-color="#00beff"/>
      <stop offset="0.512" stop-color="#00d2ff"/>
      <stop offset="0.76" stop-color="#00dfff"/>
      <stop offset="1" stop-color="#00e3ff"/>
    </linearGradient>
    <linearGradient id="linear-gradient-2" x1="1.076" y1="9.552" x2="-1.305" y2="9.552" gradientUnits="objectBoundingBox">
      <stop offset="0" stop-color="#ffe000"/>
      <stop offset="0.409" stop-color="#ffbd00"/>
      <stop offset="0.775" stop-color="orange"/>
      <stop offset="1" stop-color="#ff9c00"/>
    </linearGradient>
    <linearGradient id="linear-gradient-3" x1="0.862" y1="5.842" x2="-0.501" y2="4.073" gradientUnits="objectBoundingBox">
      <stop offset="0" stop-color="#ff3a44"/>
      <stop offset="1" stop-color="#c31162"/>
    </linearGradient>
    <linearGradient id="linear-gradient-4" x1="-0.188" y1="8.562" x2="0.421" y2="7.772" gradientUnits="objectBoundingBox">
      <stop offset="0" stop-color="#32a071"/>
      <stop offset="0.068" stop-color="#2da771"/>
      <stop offset="0.476" stop-color="#15cf74"/>
      <stop offset="0.801" stop-color="#06e775"/>
      <stop offset="1" stop-color="#00f076"/>
    </linearGradient>
  </defs>
  <g id="Group_43" data-name="Group 43" transform="translate(-10.571 -10.571)">
    <rect id="Rectangle_3" data-name="Rectangle 3" width="140.65" height="47.01" rx="9.169" transform="translate(10.571 10.571)"/>
    <g id="Group_22" data-name="Group 22" transform="translate(53.399 18.789)">
      <path id="Path_17" data-name="Path 17" d="M100.583,9.484A2.864,2.864,0,0,1,99.8,11.6a3.076,3.076,0,0,1-2.33.938,3.313,3.313,0,1,1,1.3-6.36,2.613,2.613,0,0,1,.992.709l-.557.558a2.141,2.141,0,0,0-1.736-.753A2.452,2.452,0,0,0,95,9.227a2.494,2.494,0,0,0,4.235,1.825,2,2,0,0,0,.531-1.285h-2.3V9.006h3.073A2.679,2.679,0,0,1,100.583,9.484Z" transform="translate(-94.17 -5.912)" fill="#fff"/>
      <path id="Path_18" data-name="Path 18" d="M111.027,6.939h-2.889V8.951h2.6v.762h-2.6v2.011h2.889V12.5h-3.7V6.16h3.7Z" transform="translate(-99.741 -6.016)" fill="#fff"/>
      <path id="Path_19" data-name="Path 19" d="M117.809,12.5h-.816V6.939h-1.771V6.16h4.358v.779h-1.771Z" transform="translate(-103.087 -6.016)" fill="#fff"/>
      <path id="Path_20" data-name="Path 20" d="M128.254,12.5V6.16h.815V12.5Z" transform="translate(-108.607 -6.016)" fill="#fff"/>
      <path id="Path_21" data-name="Path 21" d="M134.037,12.5h-.816V6.939H131.45V6.16h4.358v.779h-1.771Z" transform="translate(-109.96 -6.016)" fill="#fff"/>
      <path id="Path_22" data-name="Path 22" d="M149.221,11.579a3.293,3.293,0,0,1-4.651,0,3.241,3.241,0,0,1-.934-2.351,3.243,3.243,0,0,1,.934-2.352,3.282,3.282,0,0,1,4.646,0,3.242,3.242,0,0,1,.938,2.348,3.248,3.248,0,0,1-.933,2.355Zm-4.049-.531a2.438,2.438,0,0,0,3.446,0,2.485,2.485,0,0,0,.705-1.82,2.483,2.483,0,0,0-.705-1.82,2.438,2.438,0,0,0-3.446,0,2.484,2.484,0,0,0-.7,1.82,2.486,2.486,0,0,0,.7,1.82Z" transform="translate(-115.122 -5.912)" fill="#fff"/>
      <path id="Path_23" data-name="Path 23" d="M156.929,12.5V6.16h.993L161,11.094h.035L161,9.872V6.16h.816V12.5h-.851l-3.221-5.17h-.035l.035,1.223V12.5Z" transform="translate(-120.752 -6.016)" fill="#fff"/>
    </g>
    <path id="Path_24" data-name="Path 24" d="M122.242,29.558a4.5,4.5,0,1,0,4.513,4.5,4.432,4.432,0,0,0-4.513-4.5Zm0,7.221a2.732,2.732,0,1,1,2.537-2.725,2.6,2.6,0,0,1-2.537,2.725ZM112.4,29.558a4.5,4.5,0,1,0,4.513,4.5,4.432,4.432,0,0,0-4.513-4.5Zm0,7.221a2.732,2.732,0,1,1,2.538-2.725,2.6,2.6,0,0,1-2.538,2.725Zm-11.711-5.842v1.907h4.564a3.979,3.979,0,0,1-1.039,2.4,4.672,4.672,0,0,1-3.525,1.4,5.075,5.075,0,0,1,0-10.15,4.865,4.865,0,0,1,3.44,1.363l1.345-1.345a6.652,6.652,0,0,0-4.785-1.925,6.983,6.983,0,1,0,0,13.966,6.385,6.385,0,0,0,4.87-1.958,6.3,6.3,0,0,0,1.652-4.462,6.182,6.182,0,0,0-.1-1.192Zm47.895,1.481a4.179,4.179,0,0,0-3.849-2.861,4.273,4.273,0,0,0-4.24,4.5,4.4,4.4,0,0,0,4.462,4.5,4.471,4.471,0,0,0,3.746-1.992l-1.532-1.022a2.569,2.569,0,0,1-2.214,1.243,2.288,2.288,0,0,1-2.18-1.363l6.012-2.486Zm-6.131,1.5A2.466,2.466,0,0,1,144.8,31.3a1.741,1.741,0,0,1,1.669.953Zm-4.888,4.36h1.975V25.062h-1.975Zm-3.236-7.715h-.068a3.117,3.117,0,0,0-2.367-1,4.5,4.5,0,0,0,0,8.992,3.067,3.067,0,0,0,2.367-1.021h.068v.647c0,1.72-.92,2.64-2.4,2.64a2.487,2.487,0,0,1-2.265-1.6l-1.72.715a4.284,4.284,0,0,0,3.985,2.657c2.316,0,4.275-1.362,4.275-4.684V29.831h-1.873Zm-2.265,6.216a2.735,2.735,0,0,1,0-5.45,2.534,2.534,0,0,1,2.4,2.742,2.513,2.513,0,0,1-2.4,2.708Zm25.773-11.717H153.11V38.277h1.973V33.271h2.754a4.11,4.11,0,1,0,0-8.209Zm.051,6.369h-2.8V26.9h2.8a2.265,2.265,0,0,1,0,4.53Zm12.19-1.9a3.7,3.7,0,0,0-3.519,2.023l1.751.731a1.869,1.869,0,0,1,1.8-.969,1.9,1.9,0,0,1,2.074,1.7v.136a4.36,4.36,0,0,0-2.057-.51c-1.887,0-3.809,1.037-3.809,2.976a3.053,3.053,0,0,0,3.281,2.907,2.784,2.784,0,0,0,2.517-1.292h.067v1.02h1.9V33.189c0-2.346-1.746-3.655-4.008-3.655Zm-.238,7.242c-.646,0-1.547-.323-1.547-1.122,0-1.02,1.122-1.411,2.091-1.411a3.509,3.509,0,0,1,1.8.442,2.391,2.391,0,0,1-2.347,2.094Zm11.187-6.954-2.261,5.73H178.7l-2.346-5.73h-2.125l3.519,8.008-2.006,4.454H177.8l5.424-12.462ZM163.26,38.274h1.972V25.062H163.26Z" transform="translate(-41.702 8.732)" fill="#fff"/>
    <g id="Group_24" data-name="Group 24" transform="translate(21.109 20.471)">
      <path id="Path_25" data-name="Path 25" d="M37.115,7.091a2.117,2.117,0,0,0-.489,1.485V31.954a2.118,2.118,0,0,0,.489,1.485l.078.076,13.1-13.1v-.309l-13.1-13.1Z" transform="translate(-36.622 -6.659)" fill="url(#linear-gradient)"/>
      <path id="Path_26" data-name="Path 26" d="M64.695,31.2,60.33,26.835v-.309l4.37-4.367.1.056,5.172,2.939c1.477.839,1.477,2.212,0,3.052L64.8,31.145Z" transform="translate(-46.662 -13.074)" fill="url(#linear-gradient-2)"/>
      <path id="Path_27" data-name="Path 27" d="M55.114,34.467,50.65,30,37.475,43.177a1.72,1.72,0,0,0,2.2.065l15.442-8.774" transform="translate(-36.982 -16.396)" fill="url(#linear-gradient-3)"/>
      <path id="Path_28" data-name="Path 28" d="M55.114,15.548,39.672,6.773a1.72,1.72,0,0,0-2.2.065L50.65,20.013Z" transform="translate(-36.982 -6.407)" fill="url(#linear-gradient-4)"/>
      <g id="Group_23" data-name="Group 23" transform="translate(0 17.972)">
        <path id="Path_29" data-name="Path 29" d="M55.016,37.577,39.672,46.3a1.761,1.761,0,0,1-2.118.012h0l-.078.078h0l.078.077h0a1.761,1.761,0,0,0,2.118-.012l15.442-8.774Z" transform="translate(-36.982 -37.577)" opacity="0.2"/>
        <path id="Path_30" data-name="Path 30" d="M37.115,51.5a2.119,2.119,0,0,1-.489-1.485v.154a2.116,2.116,0,0,0,.489,1.485l.078-.078Z" transform="translate(-36.622 -42.844)" opacity="0.12"/>
      </g>
      <path id="Path_31" data-name="Path 31" d="M73.174,31.374,67.9,34.369l.1.1,5.172-2.939A1.857,1.857,0,0,0,74.283,30h0a1.97,1.97,0,0,1-1.109,1.374Z" transform="translate(-49.87 -16.397)" opacity="0.12"/>
      <path id="Path_32" data-name="Path 32" d="M39.312,6.928,59.926,18.641a1.967,1.967,0,0,1,1.109,1.372h0a1.854,1.854,0,0,0-1.109-1.526L39.312,6.774c-1.477-.839-2.686-.142-2.686,1.55v.154C36.626,6.786,37.835,6.089,39.312,6.928Z" transform="translate(-36.622 -6.407)" fill="#fff" opacity="0.25"/>
    </g>
  </g>
</svg>
