<svg xmlns="http://www.w3.org/2000/svg" width="170" height="52.284" viewBox="0 0 170 52.284">
  <g id="Group_18968" data-name="Group 18968" transform="translate(-118 -384)">
    <path id="Path_17346" data-name="Path 17346" d="M292.19,430.012a28.717,28.717,0,0,1,3.673-.093c14.268.015,28.54-.026,42.808.022a3.9,3.9,0,0,1,4.224,3.678c.058,10.463.008,20.926.023,31.388-.081,4.722.185,9.452-.181,14.163-7.492-7.6-15.366-14.861-22.971-22.365a53.7,53.7,0,0,0,3.839-3.883,20.653,20.653,0,0,0,2.76-.011c.493-.727,1.368-1.716.6-2.566-2.22-2.5-4.833-4.629-7.122-7.057a17.915,17.915,0,0,1-2.324-2.257c-.886-1.082-2.968-1.548-3.762-.138-.667.7-.015,1.656.008,2.462-1.661,1.3-3.049,2.876-4.586,4.3-2.255,2.245-4.66,4.353-6.8,6.7-1.1.037-2.278-.16-3.264.433a27.665,27.665,0,0,0,0,2.827c3.446,3.238,6.818,6.55,10.217,9.833.813-.034,1.835.254,2.4-.5,1.01-.679.351-1.9.532-2.85,1.137-1.291,2.551-2.324,3.634-3.663.116-.022.351-.063.466-.086a15.075,15.075,0,0,0,1.819,1.727c1.707,1.82.352.351,5.369,5.218s9.909,9.4,14.7,14.253c.358.1.721.205,1.083.313a13.667,13.667,0,0,1-2.235.321q-21.772,0-43.552,0a4.508,4.508,0,0,1-3.669-1.309c-1.052-1.052-.944-2.6-.975-3.95.108-12.8-.039-25.6.058-38.4a44.208,44.208,0,0,1,.015-5.3A3.678,3.678,0,0,1,292.19,430.012Z" transform="translate(-170.879 -45.906)" fill="#6c98a2"/>
    <path id="Path_17347" data-name="Path 17347" d="M460.37,506.4c.37-.644,1.156-.328,1.758-.382-.031,5.242,0,10.487-.012,15.729.806,0,1.615.016,2.424.023.077,1.407.081,2.821.065,4.232-.832.035-1.661.058-2.486.085,0,1.272,0,2.54,0,3.816-1.692.019-3.384.027-5.072-.046.008-1.264,0-2.524.012-3.785-3.638-.054-7.277.066-10.907-.081.112-.952-.3-2.112.447-2.875,4.613-5.554,9.173-11.154,13.775-16.715m-7.4,15.312c1.36.062,2.721.062,4.082.039-.012-1.746-.015-3.492,0-5.234C455.753,518.3,454.342,519.992,452.97,521.715Z" transform="translate(-267.526 -94.405)" fill="#6c98a2"/>
    <g id="_ffffffff" data-name="#ffffffff" transform="translate(178.961 384.387)">
      <path id="Path_17348" data-name="Path 17348" d="M454.978,431.25c4.351-.964,9.35.1,12.387,3.527-1.26,1.156-2.478,2.355-3.723,3.527a8.6,8.6,0,0,0-4.074-2.22,4.673,4.673,0,0,0-3.781.563,1.6,1.6,0,0,0,.281,2.571c2.972,1.661,6.633,1.977,9.3,4.213,2.309,1.858,2.694,5.292,1.642,7.928a8.458,8.458,0,0,1-6.028,4.687,13.566,13.566,0,0,1-9.94-1.418,16.257,16.257,0,0,1-4-3.692c1.4-1.137,2.76-2.32,4.147-3.469a8.572,8.572,0,0,0,5.265,3.8c1.657.385,3.831-.085,4.567-1.788.266-1.237-.886-2.112-1.877-2.548-2.725-1.21-6-1.538-8.14-3.8-1.919-1.9-2.1-4.9-1.407-7.377A7.148,7.148,0,0,1,454.978,431.25Z" transform="translate(-447.05 -430.911)"/>
      <path id="Path_17349" data-name="Path 17349" d="M507.73,433.005c3.118-.023,6.24-.008,9.358-.015a10.91,10.91,0,0,1,7.624,2.8,8.033,8.033,0,0,1-2.486,13.062c-2.447,1.21-5.222,1.152-7.878,1.1.008,2.313,0,4.625,0,6.937-2.2,0-4.413.008-6.618-.012q.006-11.938,0-23.873M514.351,438v6.949q1.278-.006,2.559-.023c.952-.3,2.07-.482,2.694-1.361a3.3,3.3,0,0,0-.455-4.613C517.809,437.858,515.97,437.985,514.351,438Z" transform="translate(-484.343 -432.189)"/>
      <path id="Path_17350" data-name="Path 17350" d="M564.74,433q8.383-.011,16.773,0v5.4H571.361q-.011,2.312,0,4.625c2.914,0,5.827-.008,8.741,0,0,1.665,0,3.334,0,5-2.918.008-5.831,0-8.749,0q-.006,1.734,0,3.469,5.221,0,10.445,0-.012,2.694,0,5.388-8.533.006-17.066,0Z" transform="translate(-519.381 -432.194)"/>
      <path id="Path_17351" data-name="Path 17351" d="M618.73,432.994q8.389,0,16.781,0-.023,2.7,0,5.4c-3.388-.008-6.772,0-10.159-.008,0,1.542-.008,3.087.008,4.633q4.371-.012,8.741,0-.006,2.5,0,5c-2.918.008-5.835,0-8.753,0,0,1.156,0,2.316,0,3.473q5.22-.012,10.437,0v5.388c-5.689.012-11.374,0-17.058,0Q618.736,444.94,618.73,432.994Z" transform="translate(-552.562 -432.189)"/>
      <path id="Path_17352" data-name="Path 17352" d="M672.74,433c2.987-.012,5.974,0,8.965-.008a13.958,13.958,0,0,1,10.121,4.132,11.8,11.8,0,0,1,.181,15.44,13.871,13.871,0,0,1-10.3,4.332c-2.987-.008-5.978,0-8.965-.008V433m6.618,5.388v13.108c2.147.1,4.486-.073,6.255-1.438a6.553,6.553,0,0,0,.035-10.233C683.871,438.444,681.512,438.3,679.358,438.386Z" transform="translate(-585.756 -432.189)"/>
      <path id="Path_17353" data-name="Path 17353" d="M502.73,506q8.389,0,16.777,0c0,1.8,0,3.6,0,5.4H509.351c0,1.542,0,3.079,0,4.625q4.376,0,8.749,0c-.008,1.665,0,3.334,0,5-2.918.015-5.831,0-8.745,0-.008,1.156-.008,2.309,0,3.469q5.215-.006,10.433,0c0,1.8,0,3.6,0,5.4H502.734Q502.728,517.943,502.73,506Z" transform="translate(-481.27 -478.797)"/>
      <path id="Path_17354" data-name="Path 17354" d="M552.64,506.013c2.282-.035,4.567-.023,6.856-.012q2.584,6.435,5.257,12.838c1.711-4.29,3.511-8.541,5.207-12.838,2.3-.023,4.6,0,6.9-.012q-5.816,12.193-11.666,24.37c-.224.644-1,.231-1.052-.293Q558.389,518.042,552.64,506.013Z" transform="translate(-511.944 -478.793)"/>
      <path id="Path_17355" data-name="Path 17355" d="M619.742,506q8.383,0,16.766,0c0,1.8,0,3.6,0,5.4H626.355q0,2.313,0,4.629c2.914-.012,5.828,0,8.745,0q0,2.5,0,5.006c-2.918.008-5.835,0-8.757,0,.008,1.156,0,2.316,0,3.476,3.48-.015,6.961-.008,10.441-.008v5.4H619.738Q619.743,517.943,619.742,506Z" transform="translate(-553.18 -478.797)"/>
      <path id="Path_17356" data-name="Path 17356" d="M673.74,506c3.114-.015,6.232,0,9.346-.008a10.7,10.7,0,0,1,7.982,3.172,8.009,8.009,0,0,1-2.313,12.433c1.588,2.829,3.423,5.511,5.091,8.294-2.444,0-4.887,0-7.331,0-1.326-2.293-2.7-4.56-3.947-6.891-.74-.031-1.476-.046-2.208-.054q-.012,3.474,0,6.949H673.74V506M680.362,511q-.006,3.469,0,6.941c.848,0,1.7-.008,2.551-.019a5.428,5.428,0,0,0,2.494-1.133,3.289,3.289,0,0,0-.235-4.825C683.842,510.839,681.988,510.993,680.362,511Z" transform="translate(-586.37 -478.793)"/>
    </g>
  </g>
</svg>
