<svg xmlns="http://www.w3.org/2000/svg" width="195.458" height="62.113" viewBox="0 0 195.458 62.113">
  <g id="Group_18967" data-name="Group 18967" transform="translate(-118 -384)">
    <path id="Path_17346" data-name="Path 17346" d="M292.686,430.032a31.953,31.953,0,0,1,4.223-.111c16.4.018,32.814-.031,49.219.027a4.535,4.535,0,0,1,4.857,4.369c.066,12.43.009,24.86.027,37.29-.093,5.61.213,11.229-.208,16.826-8.614-9.031-17.668-17.654-26.411-26.57a62.844,62.844,0,0,0,4.414-4.613,22.983,22.983,0,0,0,3.173-.013c.567-.864,1.573-2.038.691-3.049-2.552-2.965-5.557-5.5-8.189-8.384a20.925,20.925,0,0,1-2.672-2.681c-1.019-1.285-3.412-1.839-4.325-.164-.767.829-.018,1.967.009,2.925-1.91,1.542-3.505,3.417-5.273,5.114-2.592,2.668-5.357,5.171-7.817,7.963-1.267.044-2.619-.191-3.753.514-.053,1.117-.062,2.238,0,3.359,3.962,3.846,7.839,7.781,11.747,11.681.935-.04,2.109.3,2.761-.6,1.161-.807.4-2.26.612-3.385,1.307-1.533,2.934-2.761,4.179-4.352.133-.027.4-.075.536-.1a17.592,17.592,0,0,0,2.092,2.052c1.963,2.162,4.179,4.068,6.173,6.2,5.663,5.614,11.393,11.171,16.9,16.932.412.12.829.244,1.245.372a15.242,15.242,0,0,1-2.57.381q-25.033,0-50.074,0a5.087,5.087,0,0,1-4.219-1.555c-1.21-1.25-1.086-3.093-1.121-4.693.124-15.208-.044-30.412.066-45.616a54.273,54.273,0,0,1,.018-6.3A4.3,4.3,0,0,1,292.686,430.032Z" transform="translate(-170.879 -45.906)" fill="#6c98a2"/>
    <path id="Path_17347" data-name="Path 17347" d="M462.5,506.464c.425-.74,1.329-.377,2.021-.439-.036,6.027,0,12.058-.013,18.084.926,0,1.857.018,2.787.027.089,1.617.093,3.244.075,4.866-.957.04-1.91.066-2.858.1,0,1.462,0,2.92,0,4.387-1.945.022-3.891.031-5.832-.053.009-1.453,0-2.9.013-4.352-4.183-.062-8.366.075-12.541-.093.128-1.095-.341-2.428.514-3.306,5.3-6.385,10.547-12.824,15.838-19.219m-8.508,17.606c1.564.071,3.129.071,4.693.044-.013-2.007-.018-4.015,0-6.018C457.193,520.143,455.571,522.089,453.994,524.069Z" transform="translate(-258.449 -88.274)" fill="#6c98a2"/>
    <g id="_ffffffff" data-name="#ffffffff" transform="translate(188.09 384.445)">
      <path id="Path_17348" data-name="Path 17348" d="M456.165,431.3c5-1.108,10.75.12,14.242,4.055-1.449,1.329-2.849,2.708-4.281,4.055a9.886,9.886,0,0,0-4.684-2.552,5.373,5.373,0,0,0-4.347.647,1.835,1.835,0,0,0,.324,2.956c3.417,1.91,7.626,2.273,10.7,4.843,2.654,2.136,3.1,6.084,1.888,9.115a9.724,9.724,0,0,1-6.931,5.389,15.6,15.6,0,0,1-11.428-1.631,18.692,18.692,0,0,1-4.6-4.245c1.609-1.307,3.173-2.668,4.768-3.988a9.856,9.856,0,0,0,6.053,4.365c1.905.443,4.4-.1,5.251-2.056.306-1.422-1.019-2.428-2.158-2.929-3.133-1.392-6.9-1.768-9.359-4.365-2.207-2.18-2.411-5.637-1.617-8.482A8.218,8.218,0,0,1,456.165,431.3Z" transform="translate(-447.05 -430.911)" fill="#fff"/>
      <path id="Path_17349" data-name="Path 17349" d="M507.73,433.008c3.585-.027,7.174-.009,10.759-.018a12.544,12.544,0,0,1,8.765,3.222,9.236,9.236,0,0,1-2.858,15.018c-2.814,1.391-6,1.325-9.058,1.263.009,2.659,0,5.318,0,7.976-2.535,0-5.074.009-7.609-.013q.007-13.726,0-27.448m7.613,5.739v7.99q1.469-.007,2.942-.027c1.095-.35,2.38-.554,3.1-1.564a3.791,3.791,0,0,0-.523-5.3C519.318,438.587,517.2,438.733,515.343,438.746Z" transform="translate(-480.841 -432.069)" fill="#fff"/>
      <path id="Path_17350" data-name="Path 17350" d="M564.74,433q9.638-.013,19.285,0v6.2H572.353q-.013,2.659,0,5.318c3.35,0,6.7-.009,10.05,0,0,1.914,0,3.833,0,5.752-3.354.009-6.7,0-10.059,0q-.007,1.994,0,3.988,6,0,12.009,0-.013,3.1,0,6.2-9.811.007-19.622,0Z" transform="translate(-512.588 -432.073)" fill="#fff"/>
      <path id="Path_17351" data-name="Path 17351" d="M618.73,432.994q9.645,0,19.294,0-.026,3.1,0,6.213c-3.9-.009-7.786,0-11.681-.009,0,1.773-.009,3.55.009,5.327q5.025-.013,10.05,0-.007,2.878,0,5.752c-3.355.009-6.709,0-10.064,0,0,1.329,0,2.663,0,3.993q6-.013,12,0v6.195c-6.541.013-13.077,0-19.613,0Q618.737,446.729,618.73,432.994Z" transform="translate(-542.653 -432.069)" fill="#fff"/>
      <path id="Path_17352" data-name="Path 17352" d="M672.74,433c3.434-.013,6.869,0,10.307-.009a16.048,16.048,0,0,1,11.637,4.75,13.561,13.561,0,0,1,.208,17.752,15.948,15.948,0,0,1-11.845,4.981c-3.434-.009-6.873,0-10.307-.009V433m7.609,6.2v15.071c2.468.12,5.158-.084,7.192-1.653,3.771-2.668,3.806-9.075.04-11.765C685.538,439.26,682.826,439.1,680.349,439.194Z" transform="translate(-572.729 -432.069)" fill="#fff"/>
      <path id="Path_17353" data-name="Path 17353" d="M502.73,506q9.645,0,19.29,0c0,2.069,0,4.134,0,6.2H510.343c0,1.773,0,3.541,0,5.318q5.032,0,10.059,0c-.009,1.914,0,3.833,0,5.752-3.355.018-6.7,0-10.055,0-.009,1.329-.009,2.654,0,3.988q6-.006,12,0c0,2.069,0,4.139,0,6.208H502.734Q502.728,519.732,502.73,506Z" transform="translate(-478.056 -472.723)" fill="#fff"/>
      <path id="Path_17354" data-name="Path 17354" d="M552.64,506.017c2.623-.04,5.251-.027,7.883-.013q2.971,7.4,6.044,14.761c1.968-4.932,4.037-9.82,5.987-14.761,2.646-.027,5.287,0,7.932-.013q-6.687,14.019-13.414,28.019c-.257.74-1.148.266-1.21-.337Q559.249,519.847,552.64,506.017Z" transform="translate(-505.85 -472.72)" fill="#fff"/>
      <path id="Path_17355" data-name="Path 17355" d="M619.742,506q9.638,0,19.276,0c0,2.069,0,4.134,0,6.2H627.346q0,2.659,0,5.322c3.35-.013,6.7,0,10.055,0q0,2.878,0,5.756c-3.354.009-6.709,0-10.068,0,.009,1.329,0,2.663,0,4,4-.018,8-.009,12-.009v6.2H619.738Q619.745,519.732,619.742,506Z" transform="translate(-543.213 -472.723)" fill="#fff"/>
      <path id="Path_17356" data-name="Path 17356" d="M673.74,506c3.58-.018,7.165,0,10.746-.009a12.306,12.306,0,0,1,9.177,3.647,9.208,9.208,0,0,1-2.659,14.3c1.826,3.253,3.935,6.337,5.854,9.536-2.81,0-5.619,0-8.428,0-1.524-2.637-3.106-5.242-4.538-7.923-.851-.035-1.7-.053-2.539-.062q-.013,3.995,0,7.99H673.74V506m7.613,5.756q-.007,3.988,0,7.981c.975,0,1.95-.009,2.933-.022a6.241,6.241,0,0,0,2.867-1.3,3.782,3.782,0,0,0-.27-5.548C685.354,511.565,683.223,511.742,681.353,511.755Z" transform="translate(-573.286 -472.72)" fill="#fff"/>
    </g>
  </g>
</svg>
